<?xml version="1.0" encoding="UTF-8" standalone="no"?>
<svg width="240px" height="56px" viewBox="0 0 240 56" version="1.1" xmlns="http://www.w3.org/2000/svg" xmlns:xlink="http://www.w3.org/1999/xlink" xmlns:sketch="http://www.bohemiancoding.com/sketch/ns">
    <!-- Generator: Sketch 3.4.4 (17249) - http://www.bohemiancoding.com/sketch -->
    <title>了解更多</title>
    <desc>Created with Sketch.</desc>
    <defs></defs>
    <g id="code-main-page" stroke="none" stroke-width="1" fill="none" fill-rule="evenodd" sketch:type="MSPage">
        <g id="page-3" sketch:type="MSArtboardGroup" transform="translate(-1110.000000, -602.000000)">
            <g id="了解更多" sketch:type="MSLayerGroup" transform="translate(1110.000000, 602.000000)">
                <rect id="Rectangle-3" stroke="#4AABD8" fill="#4AABD8" sketch:type="MSShapeGroup" x="0" y="0" width="240" height="56" rx="8"></rect>
                <path d="M66.8125,23.84375 L75.0625,18.5 L56.5,18.5 L56.5,17.1875 L76.84375,17.1875 L76.84375,18.78125 L68.21875,24.59375 L68.21875,33.5 C68.2812503,36.0000125 67.0312628,37.2187503 64.46875,37.15625 L60.8125,37.15625 C60.7499997,36.5937472 60.6562506,36.0625025 60.53125,35.5625 C61.3437541,35.6250003 62.5937416,35.65625 64.28125,35.65625 C66.0937591,35.7187503 66.9375006,35.0000075 66.8125,33.5 L66.8125,23.84375 Z M88.9103479,22.53125 C88.8478476,22.4687497 88.6915992,22.3125013 88.4415979,22.0625 C88.254097,21.8749991 88.0978486,21.7500003 87.9728479,21.6875 C89.9728579,19.8124906 91.5353423,17.6875119 92.6603479,15.3125 L93.7853479,15.78125 C93.4103461,16.5312537 93.0041001,17.2187469 92.5665979,17.84375 L97.2540979,17.84375 L97.2540979,19.0625 L95.2853479,21.59375 L98.2853479,21.59375 L98.2853479,35.09375 C98.3478483,36.5937575 97.5666061,37.34375 95.9415979,37.34375 L95.2853479,37.34375 C94.7853454,37.4062503 94.4415989,37.4375 94.2540979,37.4375 C94.2540979,36.9999978 94.1915986,36.5937519 94.0665979,36.21875 L95.6603479,36.21875 C96.7228533,36.2812503 97.2228483,35.8750044 97.1603479,35 L97.1603479,31.34375 L94.5353479,31.34375 L94.5353479,35 L93.4103479,35 L93.4103479,31.34375 L90.7853479,31.34375 C90.7853479,33.8437625 90.1916039,35.9374916 89.0040979,37.625 C88.6915964,37.3124984 88.3478498,37.0937506 87.9728479,36.96875 C89.2853545,35.3437419 89.8790986,32.9062663 89.7540979,29.65625 L89.7540979,21.6875 C89.5040967,21.9375013 89.2228495,22.2187484 88.9103479,22.53125 L88.9103479,22.53125 Z M104.754098,24.40625 L105.972848,24.40625 L105.972848,27.125 L110.097848,27.125 L110.097848,28.25 L105.972848,28.25 L105.972848,31.90625 L110.660348,31.90625 L110.660348,33.03125 L105.972848,33.03125 L105.972848,37.8125 L104.754098,37.8125 L104.754098,33.03125 L99.0353479,33.03125 L99.0353479,31.90625 L104.754098,31.90625 L104.754098,28.25 L101.379098,28.25 C101.004096,29.1250044 100.6291,29.9062466 100.254098,30.59375 C99.8165958,30.3437487 99.4415995,30.1875003 99.1290979,30.125 C100.004102,28.5624922 100.754095,26.78126 101.379098,24.78125 L102.597848,25.0625 C102.535348,25.2500009 102.410349,25.5937475 102.222848,26.09375 C102.097847,26.5312522 101.972849,26.8749987 101.847848,27.125 L104.754098,27.125 L104.754098,24.40625 Z M98.8478479,23.5625 C101.472861,22.4374944 102.722849,20.6250125 102.597848,18.125 L99.7853479,18.125 L99.7853479,16.90625 L109.535348,16.90625 C109.535348,17.2812519 109.504098,17.8437463 109.441598,18.59375 C109.379098,19.593755 109.316598,20.3749972 109.254098,20.9375 C109.191598,22.6875087 108.254107,23.5625 106.441598,23.5625 L104.285348,23.5625 C104.285348,23.1874981 104.222849,22.7812522 104.097848,22.34375 L106.347848,22.34375 C107.472854,22.4062503 108.035348,21.8750056 108.035348,20.75 C108.160349,19.8749956 108.222848,19.0000044 108.222848,18.125 L103.816598,18.125 C104.004099,21.0000144 102.629113,23.1249931 99.6915979,24.5 C99.5665973,24.3124991 99.2853501,24.0000022 98.8478479,23.5625 L98.8478479,23.5625 Z M91.9103479,18.875 C91.2853448,19.875005 90.566602,20.7812459 89.7540979,21.59375 L93.7853479,21.59375 L95.9415979,18.875 L91.9103479,18.875 Z M94.5353479,27.03125 L94.5353479,30.3125 L97.1603479,30.3125 L97.1603479,27.03125 L94.5353479,27.03125 Z M97.1603479,22.71875 L94.5353479,22.71875 L94.5353479,26 L97.1603479,26 L97.1603479,22.71875 Z M90.8790979,29.84375 L90.8790979,30.3125 L93.4103479,30.3125 L93.4103479,27.03125 L90.8790979,27.03125 L90.8790979,29.84375 Z M90.8790979,22.71875 L90.8790979,26 L93.4103479,26 L93.4103479,22.71875 L90.8790979,22.71875 Z M121.320696,37.90625 C121.133195,37.4687478 120.914447,37.0625019 120.664446,36.6875 C124.289464,35.9374962 126.72694,35.2187534 127.976946,34.53125 C127.101942,34.0312475 125.851954,33.0625072 124.226946,31.625 C124.039445,31.4374991 123.883197,31.3125003 123.758196,31.25 L124.695696,30.40625 C126.258204,31.9062575 127.695689,32.9687469 129.008196,33.59375 C130.070701,32.5312447 130.695695,31.2187578 130.883196,29.65625 L123.101946,29.65625 L123.101946,20.28125 L131.258196,20.28125 C131.320696,19.281245 131.351946,18.4062538 131.351946,17.65625 L121.320696,17.65625 L121.320696,16.53125 L142.320696,16.53125 L142.320696,17.65625 L132.570696,17.65625 L132.570696,20.28125 L140.539446,20.28125 L140.539446,30.78125 L139.320696,30.78125 L139.320696,29.65625 L132.195696,29.65625 C131.883194,31.4062587 131.226951,32.9062438 130.226946,34.15625 C132.664458,35.0312544 136.945665,35.5937488 143.070696,35.84375 C142.820695,36.3437525 142.633197,36.7812481 142.508196,37.15625 C136.070664,36.8437484 131.664458,36.1250056 129.289446,35 C128.16444,36.000005 125.508217,36.9687453 121.320696,37.90625 L121.320696,37.90625 Z M132.289446,28.53125 L139.320696,28.53125 L139.320696,25.53125 L132.476946,25.53125 C132.476946,25.9062519 132.445696,26.4062469 132.383196,27.03125 C132.383196,27.7187534 132.351946,28.2187484 132.289446,28.53125 L132.289446,28.53125 Z M124.320696,21.40625 L124.320696,24.40625 L131.258196,24.40625 L131.258196,21.40625 L124.320696,21.40625 Z M131.070696,28.53125 C131.133196,28.2187484 131.164446,27.7187534 131.164446,27.03125 C131.226946,26.4062469 131.258196,25.9062519 131.258196,25.53125 L124.320696,25.53125 L124.320696,28.53125 L131.070696,28.53125 Z M139.320696,21.40625 L132.570696,21.40625 C132.508196,22.4687553 132.476946,23.4687453 132.476946,24.40625 L139.320696,24.40625 L139.320696,21.40625 Z M166.949794,24.21875 L168.074794,24.875 C167.32479,25.5000031 166.574798,26.0937472 165.824794,26.65625 L174.543544,26.65625 L174.543544,27.96875 C170.043521,32.968775 163.293589,36.2499922 154.293544,37.8125 C154.231044,37.6874994 154.137294,37.5000012 154.012294,37.25 C153.887293,36.9374984 153.793544,36.7187506 153.731044,36.59375 C162.168586,35.2812434 168.574772,32.3437728 172.949794,27.78125 L164.137294,27.78125 C163.44979,28.3437528 162.731048,28.8124981 161.981044,29.1875 C162.481046,29.5625019 163.231039,30.0937466 164.231044,30.78125 C164.856047,31.2187522 165.324792,31.5624987 165.637294,31.8125 L164.699794,32.75 C163.387287,31.6249944 162.10605,30.6562541 160.856044,29.84375 C159.293536,30.7187544 157.574803,31.5312463 155.699794,32.28125 C155.199791,31.4687459 154.949794,31.0625 154.949794,31.0625 C159.512317,29.3749916 163.512277,27.0937644 166.949794,24.21875 L166.949794,24.21875 Z M164.137294,15.03125 L165.543544,15.40625 C164.73104,16.1562537 163.856049,16.8749966 162.918544,17.5625 L173.512294,17.5625 L173.512294,18.78125 C169.137272,22.8437703 162.606087,25.9687391 153.918544,28.15625 C153.856044,27.9687491 153.731045,27.6562522 153.543544,27.21875 C153.418543,27.0937494 153.356044,27.0000003 153.356044,26.9375 C161.293584,25.0624906 167.418522,22.3437678 171.731044,18.78125 L161.418544,18.78125 C161.043542,19.0312513 160.606046,19.3124984 160.106044,19.625 C161.41855,20.3750037 162.699788,21.2187453 163.949794,22.15625 L163.106044,23.09375 C162.668542,22.7812484 162.074798,22.3750025 161.324794,21.875 C160.387289,21.1874966 159.637297,20.6562519 159.074794,20.28125 C158.574791,20.5937516 157.73105,21.0624969 156.543544,21.6875 C155.981041,21.9375013 155.543545,22.1562491 155.231044,22.34375 C155.043543,21.9687481 154.793545,21.5937519 154.481044,21.21875 C158.231063,19.6562422 161.44978,17.5937628 164.137294,15.03125 L164.137294,15.03125 Z" fill="#FFFFFF" sketch:type="MSShapeGroup"></path>
            </g>
        </g>
    </g>
</svg>